<?xml version="1.0" encoding="utf-8"?>
<!-- Generator: Adobe Illustrator 25.2.0, SVG Export Plug-In . SVG Version: 6.00 Build 0)  -->
<svg version="1.1" id="backpack" xmlns="http://www.w3.org/2000/svg" xmlns:xlink="http://www.w3.org/1999/xlink" x="0px" y="0px"
	 viewBox="0 0 1920 1285.8" style="enable-background:new 0 0 1920 1285.8;" xml:space="preserve">
<style type="text/css">
	.st0{opacity:0.1;fill:#2A94F4;enable-background:new    ;}
	.st1{opacity:0.15;fill:#2A94F4;enable-background:new    ;}
	.st2{opacity:0.15;}
	.st3{fill:#2A94F4;}
	.st4{fill:#0B4870;}
	.st5{fill:#AD6F53;}
	.st6{fill:#0E538C;}
	.st7{fill:#FFBE55;}
	.st8{fill:#FFFFFF;}
	.st9{fill:#B97A59;}
	.st10{fill:#CCE9FF;}
</style>
<path class="st0" d="M1080.4,603.5c0,0-396.9,136.4-55.4,177.3s464,505,464,505H356.7c0,0,477.2-416.6,344.4-490.3
	s367.7-207.2,367.7-207.2l46.7,4.5L1080.4,603.5L1080.4,603.5z"/>
<path class="st0" d="M61.3,615.2c0,0,510.4-335.6,564.5-330.4c32.9,3.1,98.6,11.8,163.6,39.6c233.7,99.6,312.8,236.6,397.3,283.4
	C1186.7,607.8,94.4,616.4,61.3,615.2z"/>
<path class="st0" d="M562.5,605.8c0,0,586-376.6,648.3-370.7c37.9,3.6,113.4,13.6,188.2,45.5c268.8,114.6,359.8,272.2,457,326
	C1856,606.7,600.6,607.1,562.5,605.8L562.5,605.8z"/>
<path class="st1" d="M1920,605.9c0,0-393.2-142-680.9-104.7s-518,152.7-781.8,62.1S124.6,528,14.8,605.8L1920,605.9z"/>
<g class="st2">
	<path class="st3" d="M1512.1,605.8l33.1-87.6l33.1,87.6L1512.1,605.8z"/>
	<path class="st3" d="M1555.6,605.8l33.1-87.6l33.1,87.6L1555.6,605.8z"/>
	<path class="st3" d="M1601.1,605.8l33.1-87.6l33.1,87.6L1601.1,605.8z M1385,605.8l33.1-87.6l33.1,87.6L1385,605.8z"/>
	<path class="st3" d="M1428.4,605.8l33.1-87.6l33.1,87.6L1428.4,605.8z"/>
	<path class="st3" d="M1473.9,605.8l33.1-87.6l33.1,87.6L1473.9,605.8z M1761.4,605.8l33.1-87.6l33.1,87.6L1761.4,605.8z"/>
	<path class="st3" d="M1804.8,605.8l33.1-87.6l33.1,87.6L1804.8,605.8z"/>
	<path class="st3" d="M1850.3,605.8l33.1-87.6l33.1,87.6L1850.3,605.8z M1634.2,605.8l33.1-87.6l33.1,87.6L1634.2,605.8z"/>
	<path class="st3" d="M1677.6,605.8l33.1-87.6l33.1,87.6L1677.6,605.8z"/>
	<path class="st3" d="M1723.1,605.8l33.1-87.6l33.1,87.6L1723.1,605.8z M1007.9,605.8l33.1-87.6l33.1,87.6L1007.9,605.8z"/>
	<path class="st3" d="M1051.3,605.8l33.1-87.6l33.1,87.6L1051.3,605.8z"/>
	<path class="st3" d="M1096.8,605.8l33.1-87.6l33.1,87.6L1096.8,605.8z M880.7,605.8l33.1-87.6l33.1,87.6L880.7,605.8z"/>
	<path class="st3" d="M924.2,605.8l33.1-87.6l33.1,87.6L924.2,605.8z"/>
	<path class="st3" d="M969.7,605.8l33.1-87.6l33.1,87.6L969.7,605.8z M1257.1,605.8l33.1-87.6l33.1,87.6L1257.1,605.8z"/>
	<path class="st3" d="M1300.5,605.8l33.1-87.6l33.1,87.6L1300.5,605.8z"/>
	<path class="st3" d="M1346,605.8l33.1-87.6l33.1,87.6L1346,605.8z M1129.9,605.8l33.1-87.6l33.1,87.6L1129.9,605.8z"/>
	<path class="st3" d="M1173.4,605.8l33.1-87.6l33.1,87.6L1173.4,605.8z"/>
	<path class="st3" d="M1218.9,605.8l33.1-87.6l33.1,87.6L1218.9,605.8z"/>
</g>
<g class="st2">
	<path class="st3" d="M646.2,605.8l33.1-87.6l33.1,87.6L646.2,605.8z"/>
	<path class="st3" d="M689.7,605.8l33.1-87.6l33.1,87.6L689.7,605.8z"/>
	<path class="st3" d="M735.2,605.8l33.1-87.6l33.1,87.6L735.2,605.8z M519,605.8l33.1-87.6l33.1,87.6L519,605.8z"/>
	<path class="st3" d="M562.5,605.8l33.1-87.6l33.1,87.6L562.5,605.8z"/>
	<path class="st3" d="M608,605.8l33.1-87.6l33.1,87.6L608,605.8z M895.4,605.8l33.1-87.6l33.1,87.6L895.4,605.8z"/>
	<path class="st3" d="M938.9,605.8l33.1-87.6l33.1,87.6L938.9,605.8z"/>
	<path class="st3" d="M984.4,605.8l33.1-87.6l33.1,87.6L984.4,605.8z M768.2,605.8l33.1-87.6l33.1,87.6L768.2,605.8z"/>
	<path class="st3" d="M811.7,605.8l33.1-87.6l33.1,87.6L811.7,605.8z"/>
	<path class="st3" d="M857.2,605.8l33.1-87.6l33.1,87.6L857.2,605.8z M142,605.8l33.1-87.6l33.1,87.6L142,605.8z"/>
	<path class="st3" d="M185.4,605.8l33.1-87.6l33.1,87.6L185.4,605.8z"/>
	<path class="st3" d="M230.9,605.8l33.1-87.6l33.1,87.6L230.9,605.8z M14.8,605.8l33.1-87.6L81,605.8L14.8,605.8z"/>
	<path class="st3" d="M58.2,605.8l33.1-87.6l33.1,87.6L58.2,605.8z"/>
	<path class="st3" d="M103.7,605.8l33.1-87.6l33.1,87.6L103.7,605.8z M391.2,605.8l33.1-87.6l33.1,87.6L391.2,605.8z"/>
	<path class="st3" d="M434.6,605.8l33.1-87.6l33.1,87.6L434.6,605.8z"/>
	<path class="st3" d="M480.1,605.8l33.1-87.6l33.1,87.6L480.1,605.8z M264,605.8l33.1-87.6l33.1,87.6L264,605.8z"/>
	<path class="st3" d="M307.4,605.8l33.1-87.6l33.1,87.6L307.4,605.8z"/>
	<path class="st3" d="M352.9,605.8l33.1-87.6l33.1,87.6L352.9,605.8z"/>
</g>
<path class="st4" d="M1068.3,556.5c0,0,54.4-35,35.6-79.9s-85.8-62.1-110.3-6.5c0,0-37.7-52.3-66.9-10.8s2.2,51.4,14.4,58.4
	c34.9,20.1-20.6,59-35.3,17.3c0,0-10.6,25.1,6.8,34.5c24.6,13.3,72.1,16.7,63.5-18.1c-10.1-41,30.7-28,29-48.8c0,0-5.9,3.8-5.1,15.1
	C1001.7,539.7,1017,574.5,1068.3,556.5z"/>
<path class="st5" d="M993.6,587.8c0,0,28.4-47.6,33.3-64.6l20.2,30.1c0,0-4.7,42.6-13,46.7C1025.7,604.2,993.6,587.8,993.6,587.8
	L993.6,587.8z"/>
<path class="st6" d="M976.7,902.9c0,0,34.1,123.9,35.1,136.1c1.1,12.2-15,63.3,9.4,133.1s28,77.7,28,77.7h18.4
	c0,0-20.1-146.5-12.3-192.3c7.8-45.7-26.6-227.9-31.1-253.1l-152.6-30.2c0,0-11.5,56.5,15.8,104.5c9.9,17.3,24.3,94.2,23.9,112.4
	c-0.4,18.3-38,68.9-36.8,150.4c0.2,11.5-3.3,108.2-3.3,108.2h16.1c0,0,68.1-211.8,70.7-246.9S976.7,902.9,976.7,902.9L976.7,902.9z"
	/>
<path class="st4" d="M985.5,578.8c0,0,62.4-17.5,80,49.1c0,0,12,24.9-14.2,89.3c-26.3,64.4-23.8,78.4-20,113.8
	c0,0-96.9,57.3-148.6,30.3C831,834.1,924.3,603.8,985.5,578.8L985.5,578.8z"/>
<path class="st7" d="M1079.2,651.4c0,0-39.5-38.5-102.8,0c-13,7.9-35.7,71.7-13,120.9c3.4,7.3,41.8-15.2,66.6-59.9l1.7,9
	c0,0-11.3,37.3-71.2,72.3c0,0-6,42.7-109.6,51.4c-15.2,1.3-60.3-42.1-35.1-94.1c0.6-1.3,0.3-2.8,0.5-4.2c2.6-18,10.8-36,27.8-51.3
	c0,0,21.5-39.5,48.6-53.1c0,0-3.2-36.1,37.3-52.5c20.9-8.5,36.1,4,36.1,4s1.6-6.2,6.8-13.9c0,0,7.8-8.7,3.9,22.9
	c-1.3,10.7,10.8,15.2,57,15.2C1056.7,618.1,1090,639.5,1079.2,651.4L1079.2,651.4z"/>
<path class="st8" d="M817,744c0,0-1.4,11.9,44.3,8.5v9.6c0,0-30.9,5.6-45.7-6.2C815.6,755.9,811.7,745.7,817,744L817,744z"/>
<path class="st4" d="M1086.6,651.1c0,0,36.7,37.6,32.5,92.9s-24.6,48.6-24.6,48.6S1053.9,675.7,1086.6,651.1z"/>
<path class="st6" d="M1013.5,636.1c0,0-4.6,47.2,18.3,85.3c22.9,38.1,49.1,67.8,62.7,71.2c13.6,3.4,8.5-61.8,8.5-61.8
	s-19.2-64.4-29.6-83.9C1065.8,632.6,1067.1,622.2,1013.5,636.1L1013.5,636.1z"/>
<path class="st9" d="M1072.5,629.6c0,0,9.5,3,18.2,26.2l-9.3,9.6c0,0-13.1-29.8-19-33.7S1072.5,629.6,1072.5,629.6z M1083.8,470.1
	c0,0,16.4,20.7,12.1,52.8c-4.3,32.1-36,65-75.1,21.5c0,0-7.4-9.4-8.6-19.2c0,0-14.5-9.4-7-22.7c7.4-13.3,16.4-1.6,15.7,4.7
	c-0.8,6.3,2,14.1,3.5,5.9c1.6-8.2,6.3-19.2,21.1-28.6c14.9-9.4,16.8,10.6,27.8,2C1084.2,478,1083.8,470.1,1083.8,470.1L1083.8,470.1
	z"/>
<path class="st7" d="M1065.1,1230.4c4.6,9.5,10.8,11.8,23.2,12.3c12.4,0.6,19.8,4.5,20.9,10.2c1.1,5.6,0,14.1,0,14.1h-67.8
	c0,0-5.6-14.5,3.1-29.3c0,0,13.2,9.7,21.7,2L1065.1,1230.4L1065.1,1230.4z M893.6,1230.4c4.6,9.5,8.3,11.8,20.8,12.3
	c12.4,0.6,19.8,4.5,20.9,10.2c1.1,5.6,0,14.1,0,14.1h-67.8c0,0-5.6-14.5,3.1-29.3c0,0,11.5,9.8,20,2.1L893.6,1230.4L893.6,1230.4z"
	/>
<path class="st10" d="M1639.4,603.1c3.2,0,3.2-5,0-5C1636.2,598.1,1636.2,603.1,1639.4,603.1z"/>
</svg>
