<svg xmlns="http://www.w3.org/2000/svg" xml:space="preserve" id="family-enjoying-picnic" x="0" y="0" style="enable-background:new 0 0 1080 1080" version="1.1" viewBox="0 0 1080 1080">
  <path d="M224.1 666.1c19.6-51.5 43.2-101.7 70.5-150 18.2-32.2 39.9-65.2 74.4-81.4 14.3-6.7 31.7-10 45.9-3 14.8 7.3 21.7 23.4 27.6 38.2 11.6 29.5 23.3 59 34.9 88.5 3.5 8.8 7.8 18.6 16.9 22.3 15.8 6.5 31.3-9 40.9-22.6l146.4-208.5c6.7-9.5 14.8-19.9 26.7-21.6 14.6-2.1 27.1 9.9 35.5 21.5 68.5 93.7 61.5 223.4 128.7 318l-648.4-1.4z" style="fill:#dcf2ff"></path>
  <path d="M879.4 485.7c18.4 10 30.8 29.4 30.8 51.8 0 32.5-26.4 58.9-58.9 58.9-25.1 0-46.5-15.7-55-37.8l83.1-72.9z" style="fill:#cef"></path>
  <circle cx="788.4" cy="465.7" r="93.2" style="fill:#b0e1ff"></circle>
  <path d="M788.4 649.8c-1.2 0-2.1-1-2.1-2.1v-182c0-1.2 1-2.1 2.1-2.1 1.2 0 2.1 1 2.1 2.1v182c0 1.2-1 2.1-2.1 2.1z" style="fill:#cef"></path>
  <path d="M788.4 516.1c-.5 0-1.1-.2-1.5-.6l-26.1-26.1c-.8-.8-.8-2.2 0-3 .8-.8 2.2-.8 3 0l26.1 26.1c.8.8.8 2.2 0 3-.5.3-1 .6-1.5.6zM788.4 540.3c-.5 0-1.1-.2-1.5-.6l-26.1-26.1c-.8-.8-.8-2.2 0-3 .8-.8 2.2-.8 3 0l26.1 26.1c.8.8.8 2.2 0 3-.5.4-1 .6-1.5.6zM851 649.8c-1-.2-1.7-1.2-1.7-2.2v-95.4c0-1.2.9-2.2 2-2.2 1.2-.1 2.2.9 2.2 2.1v95.6c0 1.3-1.2 2.3-2.5 2.1z" style="fill:#cef"></path>
  <path d="M851.4 566c-.5 0-1.1-.2-1.5-.6-.8-.8-.8-2.2 0-3l18.8-18.8c.8-.8 2.2-.8 3 0 .8.8.8 2.2 0 3l-18.8 18.8c-.5.4-1 .6-1.5.6zM851.4 583.5c-.5 0-1.1-.2-1.5-.6-.8-.8-.8-2.2 0-3l18.8-18.8c.8-.8 2.2-.8 3 0 .8.8.8 2.2 0 3l-18.8 18.8c-.5.4-1 .6-1.5.6z" style="fill:#cef"></path>
  <circle cx="224.8" cy="513.4" r="98.2" style="fill:#b0e1ff"></circle>
  <path d="M224.8 707.4c-1.2 0-2.2-1-2.2-2.2V513.4c0-1.2 1-2.2 2.2-2.2 1.2 0 2.2 1 2.2 2.2v191.8c0 1.2-1 2.2-2.2 2.2z" style="fill:#cef"></path>
  <path d="M224.8 566.5c-.6 0-1.1-.2-1.6-.7l-27.5-27.5c-.9-.9-.9-2.3 0-3.2.9-.9 2.3-.9 3.2 0l27.5 27.5c.9.9.9 2.3 0 3.2-.5.5-1 .7-1.6.7zM224.8 592c-.6 0-1.1-.2-1.6-.7l-27.5-27.5c-.9-.9-.9-2.3 0-3.2.9-.9 2.3-.9 3.2 0l27.5 27.5c.9.9.9 2.3 0 3.2-.5.5-1 .7-1.6.7z" style="fill:#cef"></path>
  <path d="M988.8 1004.6H103.2c-27.5 0-39.8-22.3-27.4-49.7l118.4-264.1c12.3-27.5 37.2-49.7 55.7-49.7H844c18.4 0 43.2 22.3 55.4 49.7l117.2 264.1c12.1 27.4-.3 49.7-27.8 49.7z" style="fill:#f2f2f2"></path>
  <path d="m552.6 639.6 56.7 38.3-57.5 36.5-56.6-38.3z" style="fill:#fff"></path>
  <path d="m609.3 677.9 63 38.5-57.4 36.4-63-38.4z" style="fill:#cce9ff"></path>
  <path d="m672.3 716.4 69.6 38.5-57.5 36.5-69.5-38.6z" style="fill:#fff"></path>
  <path d="m741.9 754.9 75.9 38.7-57.4 36.5-76-38.7z" style="fill:#cce9ff"></path>
  <path d="m817.8 793.6 82.4 38.8-57.4 36.5-82.4-38.8z" style="fill:#fff"></path>
  <path d="m495.2 676.1 56.6 38.3-63.8 36.3-56.6-38.3z" style="fill:#cce9ff"></path>
  <path d="m551.9 714.4 63 38.4-63.9 36.3-63-38.4z" style="fill:#fff"></path>
  <path d="m614.9 752.8 69.5 38.6-63.8 36.3-69.5-38.6z" style="fill:#cce9ff"></path>
  <path d="m684.4 791.4 76 38.7-63.9 36.3-75.9-38.7z" style="fill:#fff"></path>
  <path d="m760.4 830.1 82.4 38.8-63.8 36.3-82.5-38.8z" style="fill:#cce9ff"></path>
  <path d="m431.4 712.4 56.6 38.3-70.3 36.2-56.7-38.3z" style="fill:#fff"></path>
  <path d="m488 750.7 63 38.4-70.3 36.2-63-38.4z" style="fill:#cce9ff"></path>
  <path d="m551.1 789.1 69.5 38.6-70.3 36.2-69.6-38.6z" style="fill:#fff"></path>
  <path d="m620.6 827.7 75.9 38.7-70.3 36.2-75.9-38.7z" style="fill:#cce9ff"></path>
  <path d="m696.5 866.4 82.5 38.8-70.4 36.2-82.4-38.8z" style="fill:#fff"></path>
  <path d="m361 748.6 56.7 38.3-76.8 36.1-56.6-38.3z" style="fill:#cce9ff"></path>
  <path d="m417.7 786.9 63 38.4-76.7 36.1-63.1-38.4z" style="fill:#fff"></path>
  <path d="m480.7 825.3 69.6 38.6-76.8 36.1-69.5-38.6z" style="fill:#cce9ff"></path>
  <path d="m550.3 863.9 75.9 38.7-76.7 36.1-76-38.7z" style="fill:#fff"></path>
  <path d="m626.2 902.6 82.4 38.8-76.7 36.1-82.4-38.8z" style="fill:#cce9ff"></path>
  <path d="m284.3 784.7 56.6 38.3-83.2 35.9-56.6-38.3z" style="fill:#fff"></path>
  <path d="m340.9 823 63.1 38.4-83.3 36-63-38.5z" style="fill:#cce9ff"></path>
  <path d="m404 861.4 69.5 38.6-83.2 35.9-69.6-38.5z" style="fill:#fff"></path>
  <path d="m473.5 900 76 38.7-83.3 35.9-75.9-38.7z" style="fill:#cce9ff"></path>
  <path d="m549.5 938.7 82.4 38.8-83.2 35.9-82.5-38.8z" style="fill:#fff"></path>
  <path d="M333.3 755.1c-48.6-10.2-67.7-13.5-67.7-13.5s31.2 34.4 21.9 60.5c47.5 4.2 105.4 9.8 147.1 0-2.9-12.6-2-51.2 11.1-58.2-22.8 1.9-61.2 3.7-61.2 3.7l-51.2 7.5z" style="fill:#0b4870"></path>
  <path d="M402.8 684.7s-1.6 61.4 10.5 63.7c-11.3 8.2-104.9 14-115.4 0 5.8-27.6 17.6-99.1 17.6-99.1l32.8-29.7 27.3 4.4 27.2 60.7z" style="fill:#2a94f4"></path>
  <path d="M415.9 676.5c2 5.4 14.5 24.1 54.4-20.4 2.6 2 5.8 5 5.8 5s-64.7 84-77.2 21c8.2-2.5 17-5.6 17-5.6z" style="fill:#fcd2b1"></path>
  <path d="M366.2 619.1c13.8-1.4 48.8 7.1 58.8 56-8.4 14.8-25.4 22.5-25.4 22.5l-33.4-78.5z" style="fill:#2a94f4"></path>
  <path d="M365.3 605.2c2.1 9.7 2.7 17.8 4.8 19-2.4 6-6.6 15.4-6.6 15.4l-20.6-14 4.9-20.4h17.5z" style="fill:#fcd2b1"></path>
  <path d="M338.4 536.2c-9.4 1.6-19.9 12.5-21.2 22.7-1.3 10.2 2.3 20.5 7.7 29 1.9 3 4.1 6 7 7.9s6.5 2.9 9.7 1.6c3.4-1.3 5.7-4.7 6.8-8.4 1.1-3.7 1.2-7.6 1.2-11.4.1-10.4.1-21.4-4.7-30.3l-6.5-11.1z" style="fill:#0b4870"></path>
  <path d="M384.5 577.6c0 18.8-6.9 34-21.6 34s-31.5-5.4-31.5-28.6c0-18.8 11.9-39.4 26.5-39.4 14.7 0 26.6 15.2 26.6 34z" style="fill:#ffe3ca"></path>
  <path d="M340.1 568.7c-7 2.4-10.1-3-12.6-10.8-2.6-7.8 1-17.6 7.7-21 4.8-2.4 10.3-1.8 15.3-.5 5.1 1.3 10.2 3.1 15.4 2.9 5.2-.2 10.8-2.9 12.9-8.3 5.9 2.4 10 9.3 10.3 16.4s-2.8 14.2-7.6 18.8c-4.8 4.6-11.1 7-17.3 7.3-5.3.3-16.4-.4-20-5l-4.1.2z" style="fill:#0b4870"></path>
  <ellipse cx="328.4" cy="577.9" rx="3.7" ry="7.1" style="fill:#ffe3ca" transform="rotate(-15.623 328.436 577.95)"></ellipse>
  <path d="M345.2 564.2c.3 4.4-3.3 11.8-11.7 13.4-.9 3.5 0 9.4 0 9.4l-3 1-1.7-35.7 16.4 11.9z" style="fill:#0b4870"></path>
  <path d="M265.6 741.6c-27.8-8.3-65.9 16.1-51.9 37.2s77.3 23.6 77.3 23.6 14.8-48.8-25.4-60.8z" style="fill:#fcd2b1"></path>
  <path d="M208.3 767.1c-4.2 21 12.2 52.4 130.1 51.7 18.9 3.8 46.1 14.2 46.1 14.2s3.9-18.9-7.7-22.3c-11.6-3.3-8.5-15.1-13.3-14.9-9 2.6-20.5 6.6-20.5 6.6s-73.6-49-118.9-48.3c-7.7.2-14.3 5.5-15.8 13z" style="fill:#fcd6be"></path>
  <path d="M448.4 741.6c27.8-8.3 65.9 16.1 51.9 37.2S423 802.4 423 802.4s-14.8-48.8 25.4-60.8z" style="fill:#fcd2b1"></path>
  <path d="M505.7 767.1c4.2 21-12.2 52.4-130.1 51.7-18.9 3.8-46.1 14.2-46.1 14.2s-3.9-18.9 7.7-22.3c11.6-3.3 8.5-15.1 13.3-14.9 9 2.6 20.5 6.6 20.5 6.6s73.6-49 118.9-48.3c7.7.2 14.3 5.5 15.8 13z" style="fill:#ffe3ca"></path>
  <path d="m371 689.3 113.1-39.2 2 5.4-110.5 45.9z" style="fill:#ffbe55"></path>
  <path d="m513.1 651.1-25 9.5-12-4.4 6-11.3 25.1-9.5z" style="fill:#ffbe55"></path>
  <ellipse cx="356.8" cy="701.6" rx="35.6" ry="28.1" style="fill:#ffbe55" transform="rotate(-20.852 356.757 701.672)"></ellipse>
  <ellipse cx="356.8" cy="701.6" rx="28.1" ry="22.2" style="fill:#ffbe55" transform="rotate(-20.852 356.757 701.672)"></ellipse>
  <path d="M286 678.9c-7.6 14.1-24.1 66.5 17.6 47.9s44.8-23.3 44.8-23.3l-7.6-5.8s-70.2 35.9-36.7-12.8c-9.5-9.4-18.1-6-18.1-6z" style="fill:#fcd2b1"></path>
  <path d="m340.7 697.8 1-8.9h3.8l6.9-10.5 2.1 3.2 4.3 11.8-10.5 10.2-6.4 1z" style="fill:#fcd2b1"></path>
  <path d="M349.6 617.7c-17.5 2.2-40.6-.9-54.4 32l-13.8 32.9 27.1 8.6 18.2-38.1 22.9-35.4z" style="fill:#2a94f4"></path>
  <path d="m478.5 661.2-.5-6.2-10-2.5-6.2 5.1c-1.7 1.4-1.8 3.9-.3 5.5l4.6 4.8 12.4-6.7zM811.1 876.8s25.9 7.3 28.4 8c-7.3 1.2-35.7 0-35.7 0l-1-8.8 8.3.8z" style="fill:#fcd2b1"></path>
  <path d="M663.1 792S620 757.5 608 760.3c-12 2.8-117.4 85-117.4 85h36.6s71.4-39.8 79.2-53.2c15.2 20.3 42 36.9 42 36.9l14.7-37z" style="fill:#f9c5a2"></path>
  <path d="M422 835.8s-16.1-24.4-19.7-26.7c-7.3 1.5-1.6 26.6 2.6 33.5.3 4.4-5.7 21 22.4 10.5 2.7-11.9-5.3-17.3-5.3-17.3z" style="fill:#0e538c"></path>
  <path d="M651.8 822c-4.1-2.4-229.8 13.8-229.8 13.8l5.4 17.3s94.1 2.7 107.1-2c20.5 2.4 103.9 6.7 103.9 6.7l13.4-35.8z" style="fill:#fcd2b1"></path>
  <path d="M712.4 792h-49.2s-29.4 46.1-26.6 65c19.5 9.8 167.2 51.9 133.4-60.4-24.2-2.7-57.6-4.6-57.6-4.6z" style="fill:#0b4870"></path>
  <path d="M752.7 685.8c-10.3.5-25.5-6.9-35.3 7.3S693.9 792 693.9 792h9.5l16.7-54.8 3.2 10.8s1.6 35.2-10.9 44.1c8 12.7 39.3 21.5 56.4 7.3 6.1-25.1 12-63.9 12-63.9l20.3 142.2h12.7s-3.2-176-12.1-185.9-27.7-10.3-27.7-10.3l-21.3 4.3z" style="fill:#2a94f4"></path>
  <path d="M796.1 622.8c0 19.4-16.8 40.5-37.8 40.5s-38.1-25.6-38.1-45 17.1-32.7 38.1-32.7 37.8 17.9 37.8 37.2z" style="fill:#0b4870"></path>
  <path d="M749.9 661.9s.2 27-1.6 30.2c3.3 6.6 4.4 8.7 4.4 8.7l21.3-19.5-6.1-24.2-18 4.8z" style="fill:#fcd2b1"></path>
  <path d="M724.7 606.7c2.1 27.6 6.8 62.4 21.8 61.9s27-11.4 28.6-16.1c1.6-4.7 5.7-36.4 5.7-36.4l-56.1-9.4z" style="fill:#ffe3ca"></path>
  <path d="M720.2 606.2c1-3.3 4-5.8 7.3-6.9 3.3-1.2 6.8-1.2 10.3-1.2 7.5 0 14.9.4 22.3 1.2 5.9.6 11.8 1.5 17.2 3.8 5.4 2.3 10.4 6.1 13.1 11.3 2.8 5.5 2.7 12.6-.9 17.7-3.5 5.1-10.6 7.7-16.4 5.6-8-2.9-12-13-20.3-14.8-5.4-1.2-10.9 1.7-16.5 1.8-5.1.2-10.3-2.1-13.6-6-3.2-3.9-2.5-12.5-2.5-12.5z" style="fill:#0b4870"></path>
  <path d="M764.2 588.9c17.5-14.4 43.9-16.5 63.5-5.2 7.9 4.6 14.6 11 22.1 16.1 7.5 5.1 16.6 9.1 25.6 7.6 6.4-1 12.1-4.7 18.1-7.1 8.5-3.5 18.1-4.7 26.9-2s16.4 9.6 18.8 18.4c1.9 7 .4 14.6-2.8 21.1-6.3 13-19.6 22.3-33.9 23.9-14.4 1.6-29.3-4.6-38.4-15.8-5-6.2-8.5-14-15.2-18.5-7.9-5.2-18.2-4.5-27.5-2.8-9.3 1.7-19 4-28 1.4-7.3-2.2-13.5-7.5-18-13.6s-7.6-13.3-10.7-20.3l-.5-3.2z" style="fill:#0b4870"></path>
  <ellipse cx="778.1" cy="645.5" rx="5.4" ry="3.7" style="fill:#ffe3ca" transform="rotate(-60 778.108 645.556)"></ellipse>
  <circle cx="776.2" cy="650.6" r="2.1" style="fill:#ffbe55"></circle>
  <circle cx="252.2" cy="231.1" r="83.5" style="fill:#ffbe55"></circle>
  <path d="M501.4 329.3c-2-2.4-4.1-4.7-6.4-6.7-2.3-2.1-4.8-3.8-7.4-5.3l-2-1.1-2.1-.9c-.7-.3-1.4-.5-2.1-.8l-1.1-.4c-.4-.1-.7-.2-1.1-.3-.7-.2-1.4-.4-2.2-.5l-2.2-.4-2.2-.2c-.7-.1-1.5-.1-2.2-.1-.7-.1-1.5 0-2.2 0h-1.1c-.4 0-.7.1-1.1.1-1.5.1-3 .3-4.5.5-3 .4-5.9 1.1-8.8 2-2.9.9-5.7 1.9-8.5 3.2-1.4.6-2.7 1.3-4.1 2-1.3.7-2.7 1.5-3.9 2.2L434 324l-1.1-2.4c-.2-.5-.6-1.2-.9-1.8-.3-.6-.7-1.2-1.1-1.8-.8-1.2-1.6-2.3-2.5-3.4-1.8-2.2-3.9-4.1-6.2-5.8-2.3-1.6-4.8-2.9-7.4-3.8-2.7-.9-5.5-1.3-8.3-1.4-1.4-.1-2.9.1-4.3.2-1.4.2-2.9.4-4.3.7-2.9.6-5.6 1.6-8.4 2.6-5.5 2.2-10.7 5.2-15.8 8.4 4.5-4 9.5-7.6 14.9-10.5 2.8-1.3 5.6-2.6 8.6-3.5 1.5-.5 3-.8 4.6-1.1 1.6-.2 3.1-.4 4.7-.5 3.2-.1 6.4.2 9.5 1.1 3.1.9 6.1 2.3 8.7 4.1 2.7 1.8 5.1 4 7.1 6.4 1.1 1.2 2 2.5 2.9 3.8.4.7.9 1.3 1.3 2s.8 1.4 1.2 2.2l-3.3-1c1.5-.9 2.8-1.6 4.3-2.4 1.4-.7 2.9-1.4 4.4-2 2.9-1.3 6-2.4 9.1-3.2 3.1-.8 6.3-1.5 9.5-1.9 1.6-.2 3.2-.3 4.8-.3h2.4c.8 0 1.6.1 2.4.2 6.5.5 12.8 2.7 18.1 6.3 2.6 1.8 5.1 3.9 7.1 6.3 1.1 1.1 2 2.4 3 3.7.5.6.9 1.3 1.3 2l1.1 2.1zM811.9 189.7c-2.2-1.3-4.4-2.6-6.8-3.6-2.3-1-4.7-1.7-7.2-2.2l-1.8-.3-1.9-.2c-.6-.1-1.2 0-1.9 0h-.9c-.3 0-.6 0-.9.1-.6.1-1.2.1-1.8.2l-1.8.3-1.8.4c-.6.1-1.2.3-1.8.5l-1.8.6-.9.3c-.3.1-.6.2-.9.4-1.2.4-2.3 1-3.4 1.5-2.2 1.1-4.3 2.4-6.3 3.9-2 1.4-4 3-5.8 4.7-.9.8-1.8 1.7-2.7 2.6-.9.9-1.7 1.8-2.4 2.7l-1.4 1.7-1.5-1.6-1.2-1.2c-.4-.4-.9-.8-1.3-1.1-.9-.7-1.9-1.4-2.9-2-2-1.3-4.1-2.2-6.3-2.9-2.2-.7-4.5-1-6.8-1s-4.6.4-6.9 1.1c-1.1.3-2.2.8-3.3 1.3-1.1.6-2.1 1-3.2 1.7-2.1 1.2-4 2.7-5.9 4.2-3.7 3.2-7 6.9-10.2 10.7 2.5-4.3 5.4-8.4 8.9-12.1 1.8-1.8 3.7-3.5 5.8-5 1-.8 2.2-1.4 3.3-2.1 1.2-.6 2.3-1.2 3.6-1.6 2.5-.9 5.1-1.5 7.7-1.6 2.7-.1 5.3.2 7.9.9 2.6.7 5 1.8 7.3 3.1 1.1.7 2.2 1.4 3.3 2.2.5.4 1 .8 1.5 1.3.5.4 1 .9 1.5 1.4l-2.9.1c.9-1.1 1.8-2 2.7-3 .9-.9 1.9-1.9 2.9-2.7 2-1.8 4-3.4 6.2-4.9 2.2-1.5 4.5-2.8 6.9-3.9 1.2-.5 2.4-1.1 3.7-1.5l.9-.3 1-.3c.6-.2 1.3-.4 1.9-.5 5.2-1.3 10.7-1.2 15.8.2 2.5.8 5 1.7 7.2 3.1 1.2.6 2.2 1.4 3.3 2.1l1.5 1.2 1.8 1.1z" style="fill:#2a94f4"></path>
  <path d="m209.1 802.4-1.7 32.8h3.3z" style="fill:#d3d3d3"></path>
  <path d="m212.4 820.7-1.7 14.5h3.4zM218.3 811.3l-4.2 23.9h8.5zM126.6 920l-4.2 39.8h8.4zM134 930.4l-3.2 29.4h6.4z" style="fill:#e0e0e0"></path>
  <path d="m940.1 856.4-2.7 32.8h5.4z" style="fill:#d3d3d3"></path>
  <path d="m945.5 874.7-2.7 14.5h5.4z" style="fill:#e0e0e0"></path>
  <path d="m699.2 941.4-3.5 41.8h6.9z" style="fill:#d3d3d3"></path>
  <path d="m706 964.7-3.4 18.5h6.9z" style="fill:#e0e0e0"></path>
  <path d="M708.8 162.1C682.3 137 650 130 610.2 131.9c-6.5.3-13.8 1.4-17.6 5.9-3.8 4.5.3 12.7 6.7 11.5-45-21.3-98.7-29.3-149.6-22.3-5.6.8-11.8 2-15.1 5.9s-1.1 11 4.6 11c-41.9-17.4-117.3 16.2-109.8 19.1l379.4-.9zM989 283.6c-19.5-18.5-43.2-23.7-72.5-22.3-4.8.2-10.2 1-12.9 4.3-2.8 3.3.2 9.4 4.9 8.4-33.1-15.7-72.6-21.6-110.1-16.4-4.1.6-8.7 1.5-11.1 4.3s-.8 8.1 3.4 8.1c-30.8-12.8-86.3 11.9-80.8 14l279.1-.4z" style="fill:#dcf2ff"></path>
</svg>
