<?xml version="1.0" encoding="utf-8"?>
<!-- Generator: Adobe Illustrator 25.2.0, SVG Export Plug-In . SVG Version: 6.00 Build 0)  -->
<svg version="1.1" id="girl-with-backpack-going-for-trekking"
	 xmlns="http://www.w3.org/2000/svg" xmlns:xlink="http://www.w3.org/1999/xlink" x="0px" y="0px" viewBox="0 0 1920 1396"
	 style="enable-background:new 0 0 1920 1396;" xml:space="preserve">
<style type="text/css">
	.st0{opacity:0.1;fill:#2A94F4;enable-background:new    ;}
	.st1{fill:#CCE9FF;}
	.st2{fill:#0E538C;}
	.st3{fill:#FFBE55;}
	.st4{opacity:0.16;fill:#FFFFFF;enable-background:new    ;}
	.st5{fill:#EFB68F;}
	.st6{fill:#0B4870;}
	.st7{fill:#2A94F4;}
</style>
<g id="Background">
	<path class="st0" d="M1852.3,1360.4c0,0,146.9-271.4-132.4-315.9c-85.6-13.6-135-45.8-135-94.6s46.7-116.2,179.1-103.2
		c132.4,12.9,184.3-342.2-168.7-342.2s-486.7-73.1-561.3-104.2s-745.8-273-837.5,323.1c-13,84.3,7.8,184.2,90.8,235.5
		s77.9,119.1,15.6,159.1c-62.3,40.1-233.6,32.5-244,254.3L1852.3,1360.4z"/>
	<path class="st1" d="M560.4,1357.9l680.2-346.4l616.1,371.9L560.4,1357.9z"/>
	<path class="st1" d="M53.4,1366.3l429.5-321.8l470.9,321.8H53.4z"/>
	<path class="st2" d="M1911.4,1393.8l-1905-6.2c0.3-95.5,427-191.7,953-190C1485.5,1199.3,1911.8,1298.2,1911.4,1393.8z"/>
</g>
<g id="Character">
	<path class="st3" d="M923.6,780.8H774c-14,0-25.3-11.3-25.3-25.3V556.7c0-14,11.3-25.3,25.3-25.3h149.6c14,0,25.3,11.3,25.3,25.3
		v198.9C948.9,769.5,937.6,780.8,923.6,780.8z"/>
	<path class="st4" d="M950.4,780.8h-157c-3.6,0-6.5-2.9-6.5-6.5V537.9c0-3.6,2.9-6.5,6.5-6.5h157c3.6,0,6.5,2.9,6.5,6.5v236.4
		C956.9,777.9,954,780.8,950.4,780.8z"/>
	<path class="st2" d="M832.5,473.8c0,0,4.7-36.8,20-50.2c20-17.5,62.8-12.8,79.5,3.9c18.5,18.5,27.4,56.2,12.3,83.4
		c30,17.6,28.4,56.4,3.2,60.1c0,0-189-6.3-151.9-72C813.2,467.9,832.5,473.8,832.5,473.8z"/>
	<path class="st5" d="M940.8,605.9c0,0,59.8,63.7,78.9,77.2c13.9,12.1,99.2-48.8,105.1-52c17.2,1.7,27.8-6,31.9-11.6
		c4.1-5.6-7.1-21.7-10.6-20c-13.1-15.7-20.8,6.9-27.4,12.6c-22.7,10.5-78,33.1-84.4,38c-29.9-24.4-72.5-76.4-72.5-76.4L940.8,605.9
		L940.8,605.9z M940.7,1212.9c0,0,3.1,16.1,2.8,28.9c-1.8,8.9,0,11.5,0,11.5l36.5-2.9c0,0-16.2-7.3-15-42.1
		C966.3,1173.5,940.7,1212.9,940.7,1212.9z"/>
	<path class="st6" d="M943.1,1244.4c0,0,15.9,5.4,31.6,1.3c18.5,7.9,31.5,11,48.3,12.9c16.8,2,13.8,14.7-14.9,12.9
		c-28.7-1.8-48.7-0.5-55.1,0c-6.4,0.6-16.6,1.4-17-2.7C935.6,1264.8,937.9,1243.1,943.1,1244.4L943.1,1244.4z M954.2,765.2
		c0,0,23.5,211.5,24.9,239c1.4,27.5,1.4,37.1,0,53.9s-13.9,158-13.9,158l-24,1.4c0,0-17.9-154-24.9-180.3
		c-7-26.3-34.2-159.8-34.2-159.8l31.4-136.5L954.2,765.2L954.2,765.2z"/>
	<path class="st5" d="M840.2,1215.8c0,0,1.3,11.8-0.1,24.5c-2.5,8.7-0.9,11.5-0.9,11.5l36.7,0.1c0,0-15.5-8.6-11.5-43.2
		C868.3,1174.2,840.2,1215.8,840.2,1215.8L840.2,1215.8z"/>
	<path class="st6" d="M841.1,1244.4c0,0,15.9,5.4,31.6,1.3c18.5,7.9,31.5,11,48.3,12.9c16.8,2,13.8,14.7-14.9,12.9
		c-28.7-1.8-48.7-0.5-55.1,0c-6.4,0.6-16.6,1.4-17-2.7C833.6,1264.8,835.9,1243.1,841.1,1244.4L841.1,1244.4z M906.9,765.2
		c0,0-19.9,212.3-18.5,239.8s-24.1,211.5-24.1,211.5l-24.1,0.5c0,0-6.2-161.6-6.2-188.8c0-25.9-8.5-236.6-8.5-236.6l35.5-50.8
		L906.9,765.2z"/>
	<path class="st7" d="M932,641.7c-3.3,7.6,21.7,113.8,25.9,138.3l-1.5-0.3c-10.9-1.6-77.3-10.4-130.9,12l-4.9-150l-0.2-5.6
		c0,0,0-5.7,0.5-14.3v-0.1c1.2-17.8,4.9-48,16.4-67.3c5.9-10,13.8-17.2,24.6-18.2c33.4-3.3,60,11.1,72.5,15
		c21.1,6.6,59,52.7,59,52.7s-29.4,23.2-37.6,30.5l-14.5-17.2C941.3,617.2,935.3,633.9,932,641.7z"/>
	<path class="st5" d="M923.2,441.2c0,0,21.2,49.1,5.1,71.5c-12,16.8-33,17.3-33,17.3v24.2c0,0-2.4,2.1-6.6,2.4
		c-7.3,0.4-26.8-11.4-26.8-11.4V450L923.2,441.2z M790.5,595.4c0,0-46.4,73.6-55.9,94.4c-9.1,15.3,67.5,94.7,71.7,100.3
		c1.6,17.6,7.3,22.6,10.4,25.4c3.1,2.8,7.5,8.7,9.8,8.6l-1.1-30.9c-0.7-0.7,1.6-4.5,5.4-2.4c13.2,7.4,13.2-12.1-6.9-10.1
		c-1.2,0.1-1.9-1.6-2.8-2.4c-14.3-22-46.5-75.8-52.5-81.7c18-32.9,60.3-81.5,60.3-81.5L790.5,595.4L790.5,595.4z"/>
	<path class="st7" d="M775.4,601.8c0,0,43-56,69.7-54s25.1,37.9,0,63c-25.1,25.1-33.5,34.7-33.5,34.7S781,631.3,775.4,601.8z"/>
	<path class="st2" d="M925.1,435.6c0,0-10,43.9-33,55.5s-5.6,40-27.6,61.3c-6.5,6.3-16.2,5.2-23.6,3c-10.6-3.2-20.1-0.5-27.6,7.2
		c-0.7,0.7-3.5,2.1-4,2.9c-28.5-18.8,43.1-124.4,43.1-124.4L925.1,435.6L925.1,435.6z"/>
	<path class="st3" d="M1145.7,1272.2h-17.4V445.3c6.7,0,12.1,5.4,12.3,12l1.3,68.4c0,2.1,1.7,3.7,3.8,3.7l62.8-37.9
		c0,9.7-4.9,18.8-13.1,24.1l-39.5,25.5c-6.4,4.1-10.2,11.2-10.2,18.7L1145.7,1272.2L1145.7,1272.2z M828.7,554.5l-11.1,218.4l5,7.2
		c0,0,31.1-111.8,18.5-224.5C841,555.5,830.7,550.3,828.7,554.5z M915.8,544.2L947.1,728c0,0-6.4-159.1-15.7-177.8L915.8,544.2z
		 M840.8,440l100.9,0.3c0.5-0.4,7.8,10.3,5.8,12.8c-0.6,0.7,0.3,0.8,0.3,0.8s-54.6,4.2-110.2-2.8C837.6,451.1,840.8,440,840.8,440z"
		/>
	<path class="st3" d="M859.5,443.5c0,0-57.9-1-95.8,59.1l15.3,1.3C778.9,503.9,811.6,450.3,859.5,443.5z"/>
	<path class="st3" d="M853.3,450.9c0,0-35.1-35.3-95.9,1.5L762,481C762,481,807.4,435.5,853.3,450.9z"/>
</g>
</svg>
